<svg width="15px" height="15px" viewBox="0 0 15 15" version="1.1" xmlns="http://www.w3.org/2000/svg" xmlns:xlink="http://www.w3.org/1999/xlink"><desc>Created with Sketch.</desc><defs></defs><g id="Page-1" stroke="none" stroke-width="1" fill="none" fill-rule="evenodd"><g id="Desktop-Blog" transform="translate(-85.000000, -164.000000)" fill="#777777" fill-rule="nonzero"><g id="createtask" transform="translate(85.000000, 164.000000)"><path d="M8.18181818,13.6390909 L1.36363636,13.6425 L1.36227273,11.5902273 L1.36090909,8.18113636 L1.36022727,6.8175 L1.35818182,3.40840909 L1.3575,1.36295455 L13.6329545,1.36295455 L13.6418182,13.6363636 L8.18181818,13.6390909 Z M13.6329545,1.51394434e-16 L1.3575,1.51394434e-16 C0.607974748,0.00112729599 0.000750933711,0.608656094 0,1.35818182 L0,13.6425 C0,14.3911364 0.609545455,14.9993182 1.35818182,14.9993182 L13.6418182,14.9993182 C14.3908128,14.9985693 14.9981223,14.3921744 15,13.6431818 L15,1.35818182 C14.9969931,0.605865013 14.385275,-0.00188681618 13.6329545,1.51394434e-16 Z" id="Shape" opacity="0.769999981"></path><path d="M11.0925,3.40909091 L6.31977273,3.40909091 C5.94321494,3.40909091 5.63795455,3.71435131 5.63795455,4.09090909 C5.63795455,4.46746687 5.94321494,4.77272727 6.31977273,4.77272727 L11.0925,4.77272727 C11.4690578,4.77272727 11.7743182,4.46746687 11.7743182,4.09090909 C11.7743182,3.71435131 11.4690578,3.40909091 11.0925,3.40909091 M11.0925,6.81818182 L6.31977273,6.81818182 C5.94321494,6.81818182 5.63795455,7.12344222 5.63795455,7.5 C5.63795455,7.87655778 5.94321494,8.18181818 6.31977273,8.18181818 L11.0925,8.18181818 C11.4690578,8.18181818 11.7743182,7.87655778 11.7743182,7.5 C11.7743182,7.12344222 11.4690578,6.81818182 11.0925,6.81818182 M11.0925,10.2272727 L6.31977273,10.2272727 C5.94321494,10.2272727 5.63795455,10.5325331 5.63795455,10.9090909 C5.63795455,11.2856487 5.94321494,11.5909091 6.31977273,11.5909091 L11.0925,11.5909091 C11.4690578,11.5909091 11.7743182,11.2856487 11.7743182,10.9090909 C11.7743182,10.5325331 11.4690578,10.2272727 11.0925,10.2272727 M4.09090909,3.40909091 C3.71435131,3.40909091 3.40909091,3.71435131 3.40909091,4.09090909 C3.40909091,4.46746687 3.71435131,4.77272727 4.09090909,4.77272727 C4.46746687,4.77272727 4.77272727,4.46746687 4.77272727,4.09090909 C4.77272727,3.71435131 4.46746687,3.40909091 4.09090909,3.40909091 M4.09090909,6.81818182 C3.71435131,6.81818182 3.40909091,7.12344222 3.40909091,7.5 C3.40909091,7.87655778 3.71435131,8.18181818 4.09090909,8.18181818 C4.46746687,8.18181818 4.77272727,7.87655778 4.77272727,7.5 C4.77272727,7.12344222 4.46746687,6.81818182 4.09090909,6.81818182 M4.09090909,10.2272727 C3.71435131,10.2272727 3.40909091,10.5325331 3.40909091,10.9090909 C3.40909091,11.2856487 3.71435131,11.5909091 4.09090909,11.5909091 C4.46746687,11.5909091 4.77272727,11.2856487 4.77272727,10.9090909 C4.77272727,10.5325331 4.46746687,10.2272727 4.09090909,10.2272727" id="Shape"></path></g></g></g></svg>
