<svg width="14px" height="14px" viewBox="0 0 14 14" version="1.1" xmlns="http://www.w3.org/2000/svg" xmlns:xlink="http://www.w3.org/1999/xlink">
    <!-- Generator: Sketch 48.2 (47327) - http://www.bohemiancoding.com/sketch -->
    <desc>Created with Sketch.</desc>
    <defs></defs>
    <g id="Page-1" stroke="none" stroke-width="1" fill="none" fill-rule="evenodd">
        <g id="Desktop-Blog" transform="translate(-258.000000, -240.000000)" fill="#777777" fill-rule="nonzero">
            <g id="tags" transform="translate(185.000000, 240.000000)">
                <g id="tag2" transform="translate(73.000000, 0.000000)">
                    <g id="label">
                        <path d="M12.7327788,6.43111479 L6.38789667,12.7811779 L6.38546055,12.7811779 L1.21661679,7.61154399 L7.56271694,1.26148087 C7.71741074,1.24563618 8.10049107,1.2188221 9.00794685,1.2188221 C10.5731558,1.2188221 12.6560409,1.29499848 12.6968459,1.31632786 C12.7760199,3.43585949 12.8076895,5.82779785 12.7333878,6.43111479 M13.9149074,1.29377965 C13.9149074,0.623427502 13.3698249,0.0780046141 12.7224252,0.0780046141 L12.7212072,0.0780046141 C12.7005001,0.0773952031 10.5956899,0 9.00794685,0 C7.17780952,0 7.01337123,0.0883646019 6.81543624,0.286423192 L0.355447347,6.75044618 C-0.119596619,7.22578679 -0.118378557,7.99973882 0.3584925,8.47690767 L5.52063692,13.6422757 C5.7520686,13.8732425 6.05841105,14 6.38546055,14 C6.71190102,14 7.01702541,13.8738519 7.24541193,13.6453228 L13.7054008,7.18129979 C13.9185616,6.96800592 14.1195417,6.76690027 13.9142984,1.29377965" id="Shape" opacity="0.769999981"></path>
                        <path d="M9.33333333,4.85714286 C8.8607619,4.85714286 8.47619048,4.47257143 8.47619048,4 C8.47619048,3.52742857 8.8607619,3.14285714 9.33333333,3.14285714 C9.80590476,3.14285714 10.1904762,3.52742857 10.1904762,4 C10.1904762,4.47257143 9.80590476,4.85714286 9.33333333,4.85714286 M9.33333333,2 C8.23047619,2 7.33333333,2.89714286 7.33333333,4 C7.33333333,5.10285714 8.23047619,6 9.33333333,6 C10.4361905,6 11.3333333,5.10285714 11.3333333,4 C11.3333333,2.89714286 10.4361905,2 9.33333333,2" id="Shape"></path>
                    </g>
                </g>
            </g>
        </g>
    </g>
</svg>
